<svg width="24" height="24" viewBox="0 0 24 24" fill="none" xmlns="http://www.w3.org/2000/svg">
<g clip-path="url(#clip0)">
<path d="M20.5038 8.00519C20.5166 8.17615 20.5169 8.34714 20.5173 8.5197C20.5276 13.7777 16.3061 19.8499 8.56525 19.8651L8.56524 19.8619C6.27858 19.8695 4.03821 19.2546 2.11093 18.0906C2.4435 18.1278 2.7777 18.1461 3.11271 18.1462C5.00771 18.1441 6.84736 17.5393 8.33603 16.4293C6.53514 16.4005 4.9538 15.2934 4.39897 13.6736C5.03003 13.7875 5.67998 13.7625 6.29883 13.6014C4.33477 13.2302 2.91908 11.6019 2.91538 9.70765C2.91535 9.69032 2.91531 9.67377 2.91528 9.65723C3.50088 9.96417 4.15622 10.1339 4.82625 10.1515C2.9748 8.98657 2.40026 6.66167 3.51337 4.84091C5.65489 7.3227 8.81035 8.82781 12.1948 8.98115C11.853 7.59976 12.3135 6.15061 13.4049 5.17694C15.0969 3.66708 17.7629 3.73909 19.3594 5.33787C20.3015 5.16031 21.2042 4.83155 22.03 4.36662C21.7176 5.28834 21.0617 6.07206 20.1843 6.57097C21.0183 6.47636 21.8329 6.2636 22.5997 5.93983C22.0363 6.74148 21.326 7.44021 20.5038 8.00519Z" fill="#ffffff"/>
</g>
<defs>
<clipPath id="clip0">
<rect width="20.6667" height="16.0741" fill="white" transform="translate(2 4) rotate(-0.111979)"/>
</clipPath>
</defs>
</svg>
