<svg width="24" height="24" viewBox="0 0 24 24" fill="none" xmlns="http://www.w3.org/2000/svg">
<g clip-path="url(#clip0)">
<path d="M13.5374 12.0001C13.5374 15.8661 10.5069 19 6.76884 19C3.03073 19 0 15.8653 0 12.0001C0 8.13489 3.0305 5 6.76884 5C10.5072 5 13.5374 8.13418 13.5374 12.0001Z" fill="black"/>
<path d="M20.9629 12.0001C20.9629 15.639 19.4476 18.5901 17.5785 18.5901C15.7093 18.5901 14.194 15.639 14.194 12.0001C14.194 8.36113 15.7091 5.41 17.5782 5.41C19.4474 5.41 20.9629 8.36018 20.9629 12.0001Z" fill="black"/>
<path d="M24 12.0001C24 15.2597 23.4672 17.9038 22.8097 17.9038C22.1522 17.9038 21.6196 15.2604 21.6196 12.0001C21.6196 8.73982 22.1525 6.09647 22.8097 6.09647C23.467 6.09647 24 8.73958 24 12.0001Z" fill="black"/>
</g>
<defs>
<clipPath id="clip0">
<rect width="24" height="24" fill="white"/>
</clipPath>
</defs>
</svg>
